<svg version="1.1" id="Layer_1" xmlns="http://www.w3.org/2000/svg" x="0" y="0" viewBox="0 0 2000 2000" xml:space="preserve"><defs/><style>.st0{fill:#954253}.st2{fill:#fefefe}.st3{fill:#b96156}.st4{fill:#fee378}</style><path class="st0" d="M391 83h1349c22 18 17 43 17 67 2 58 8 64 65 66l27 1c39 2 45 8 45 47v549c0 39-6 44-46 46-36 2-72 2-108-1-85 4-170 2-254 2-15 0-30-1-44-9-16-11-18-29-19-46l-1-56c-1-25-13-38-39-39-31 0-62 0-92-3-28 3-55 2-83 3-42 1-49 8-50 52-1 17 0 35-2 52-1 14-4 27-17 36-12 8-25 9-39 10-136 0-273 3-409-2-32 2-64 3-97 2-61-2-70-9-71-70V490c0-85 0-85-84-89-55-2-64-10-65-64-2-67-1-135-1-202 1-19 0-38 18-52z"/><path d="M391 83v299h149v461h150c16 11 18 29 17 46-1 36 8 72-9 106-25 21-55 14-83 15-47 3-56 10-57 59v608c1 47 10 56 58 57 90 3 93 5 92 95-1 27 8 58-18 81H241c-24-20-17-48-17-73-2-64-4-66-68-68-23 0-48 5-65-17V234c20-24 47-17 72-18 54-1 59-6 60-60 1-25-6-53 18-73h150z" fill="#5e315b"/><path class="st0" d="M691 1910v-156H544V992h146c22 13 17 35 18 54v469c1 62 6 68 69 69l30 1c38 3 47 13 50 51l1 38c1 51 10 60 62 60l749 1c26 0 53-5 75 14 19 54 25 108-4 161H691z"/><path class="st2" d="M1740 1910l1-157 3-6c23-20 52-11 78-12 42-3 50-8 50-50l3-89c-6-161-1-323-3-484-1-85 14-105-96-103-40 1-50-12-53-52v-75c1-15 4-29 18-39h147V236h-148V83h157v1827h-157zM91 1752h150v158H91v-158zM241 83v151H91V83h150z"/><path class="st3" d="M1741 843v149h148v610c-12 17-29 17-47 17-85 0-86 0-85 87 0 18-2 35-17 47h1-900v-150H690V992 843l450-1 5 2c19 23 11 51 12 76 3 49 7 55 54 55 27 1 53 1 79 3 30-3 60-3 90-3 29 1 42-13 43-43 1-29-9-60 12-87l6-2h300zM1143 380V238h444v142h-444zM844 380V238h142v142H844z"/><path class="st2" d="M1140 842V693h150c30 50 22 101 4 153-51 19-102 26-152-4h-2z"/><path class="st4" d="M1289 842l1-149h151v150l-2-1c-9 13-21 17-35 17-36-1-71 7-106-7-4-2-7-6-9-10z"/><path class="st0" d="M1740 1753v-151h149v151h-149z"/><path class="st4" d="M1142 842h147l2 1c24 35 23 117-1 149h-148V842z"/><path d="M1290 992l1-149 148-1v150h-149z" fill="#feb470"/></svg>