<svg id="Layer_1" data-name="Layer 1" xmlns="http://www.w3.org/2000/svg" viewBox="0 0 149.7 219.71"><defs><style>.cls-1{fill:#afc537;}</style></defs><title>buy-arrow</title><path class="cls-1" d="M61,201.18V191.12H51.09V181.06h-9.9v-9.88c6.38-.39,13-.12,19.56-.17s13.29,0,20.1,0V151.24h70.06v19.7h40v9.88h-9.74v10.06H171.09v10.06h-9.9v9.68c-1.69.7-3.34.3-4.93.37s-3.29,0-5.11,0v9.88H141.09v10.06H131v9.88h-9.69c-.63,1.71-.27,3.36-.33,5s0,3.28,0,5.06h-9.91v-9.79h-9.9v-9.68c-1.69-.7-3.35-.3-4.94-.37s-3.28,0-5.1,0v-9.88H81.09V211.06H71v-9.88Z" transform="translate(-41.19 -31.15)"/><path class="cls-1" d="M81.09,60.84V31.16h69.58c0-.05.09.05.17.19a.89.89,0,0,1,.15.44c0,9.63,0,19.26,0,29.05Z" transform="translate(-41.19 -31.15)"/><path class="cls-1" d="M81.08,100.83V71.17h69.57c-.06-.06.08,0,.17.17a.77.77,0,0,1,.17.42c0,9.64,0,19.27,0,29.07Z" transform="translate(-41.19 -31.15)"/><path class="cls-1" d="M81.08,140.83V111.17h69.57c-.06-.06.08,0,.18.17a.84.84,0,0,1,.16.42c0,9.64,0,19.27,0,29.07Z" transform="translate(-41.19 -31.15)"/></svg>