<svg id="Layer_1" data-name="Layer 1" xmlns="http://www.w3.org/2000/svg" viewBox="0 0 149.64 219.89"><defs><style>.cls-1{fill:#c66e29;}</style></defs><title>sell-arrow</title><path class="cls-1" d="M150.5,131H81.1c0-2.08-.08-4.18-.1-6.29,0-2.33,0-4.66,0-7v-6.59H41.22V101.06h9.59v-9.8c3.37-.58,6.65,0,10-.39V81.12H70.91V71.06H81V61.18h9.88V51.12h10.06V41.06h9.9V31.38c1.69-.7,3.35-.3,4.94-.37s3.29,0,5.1,0v9.88h10.06V50.94H141v9.88h9.88V70.88h10.06V80.94h9.9v10c3.39.17,6.64,0,10,.1v9.86h10v10.06h-40c0,6.8,0,13.25,0,19.71C150.84,130.76,150.62,130.88,150.5,131Z" transform="translate(-41.22 -30.96)"/><path class="cls-1" d="M81.09,170.84V141.16h69.56c-.05,0,.09.05.18.18a.81.81,0,0,1,.16.43c0,9.64,0,19.27,0,29.07Z" transform="translate(-41.22 -30.96)"/><path class="cls-1" d="M150.82,210.92H81.18V181.49c4.12-.74,52.28-1,69.64-.34Z" transform="translate(-41.22 -30.96)"/><path class="cls-1" d="M150.91,221.17v29.66H81.35c.07.06-.07,0-.17-.16a.77.77,0,0,1-.17-.42c0-9.64,0-19.27,0-29.08Z" transform="translate(-41.22 -30.96)"/></svg>